<svg width="36" height="25" viewBox="0 0 36 25" fill="none" xmlns="http://www.w3.org/2000/svg">
<path d="M18.5843 22.5339C21.8464 20.389 24 16.696 24 12.5C24 8.30401 21.8464 4.61103 18.5843 2.46607C15.0207 4.39355 12.6 8.16409 12.6 12.5C12.6 16.8359 15.0207 20.6064 18.5843 22.5339Z" fill="black"/>
<path d="M18 22.8946C14.4132 20.8198 12 16.9417 12 12.5C12 8.0583 14.4132 4.18025 18 2.10539C16.235 1.08436 14.1857 0.5 12 0.5C5.37258 0.5 0 5.87258 0 12.5C0 19.1274 5.37258 24.5 12 24.5C14.1857 24.5 16.235 23.9156 18 22.8946Z" fill="black"/>
<path d="M18.5843 22.5339C18.3932 22.6595 18.1984 22.7798 18 22.8946C19.765 23.9156 21.8143 24.5 24 24.5C30.6274 24.5 36 19.1274 36 12.5C36 5.87258 30.6274 0.5 24 0.5C21.8143 0.5 19.765 1.08437 18 2.10539C18.1984 2.22016 18.3932 2.34046 18.5843 2.46607C20.1953 1.59471 22.0399 1.1 24 1.1C30.296 1.1 35.4 6.20395 35.4 12.5C35.4 18.796 30.296 23.9 24 23.9C22.0399 23.9 20.1953 23.4053 18.5843 22.5339Z" fill="black"/>
</svg>
