<svg width="36" height="24" viewBox="0 0 36 24" fill="none" xmlns="http://www.w3.org/2000/svg">
    <style>
        @media (prefers-color-scheme: dark) {
            path {
                stroke: white;
                fill: white;
            }
        }
    </style>

    <path d="M18.5843 22.0339C21.8464 19.889 24 16.196 24 12C24 7.80401 21.8464 4.11103 18.5843 1.96607C15.0207 3.89355 12.6 7.66409 12.6 12C12.6 16.3359 15.0207 20.1064 18.5843 22.0339Z" fill="black"/>
    <path d="M18 22.3946C14.4132 20.3198 12 16.4417 12 12C12 7.5583 14.4132 3.68025 18 1.60539C16.235 0.584363 14.1857 0 12 0C5.37258 0 0 5.37258 0 12C0 18.6274 5.37258 24 12 24C14.1857 24 16.235 23.4156 18 22.3946Z" fill="black"/>
    <path d="M18.5843 22.0339C18.3932 22.1595 18.1984 22.2798 18 22.3946C19.765 23.4156 21.8143 24 24 24C30.6274 24 36 18.6274 36 12C36 5.37258 30.6274 0 24 0C21.8143 0 19.765 0.584366 18 1.60539C18.1984 1.72016 18.3932 1.84046 18.5843 1.96607C20.1953 1.09471 22.0399 0.6 24 0.6C30.296 0.6 35.4 5.70395 35.4 12C35.4 18.296 30.296 23.4 24 23.4C22.0399 23.4 20.1953 22.9053 18.5843 22.0339Z" fill="black"/>
</svg>
